<svg width="91" height="69" viewBox="0 0 91 69" fill="none" xmlns="http://www.w3.org/2000/svg">
<path d="M47.5041 0.131985C47.3542 0.206951 47.1668 0.244434 47.1044 0.216324C47.0294 0.18821 46.9795 0.197582 46.9795 0.235065C46.9795 0.281918 46.6672 0.422478 46.2924 0.5443C45.9177 0.666119 45.6054 0.806679 45.6054 0.844162C45.6054 0.881645 45.568 0.909756 45.5055 0.891014C45.4056 0.872272 41.7706 2.10921 41.5208 2.25914C41.4333 2.306 41.3584 2.51215 41.3584 2.70894C41.3584 2.93383 41.4209 3.07439 41.5208 3.07439C41.6207 3.07439 41.6332 3.10251 41.5333 3.14936C41.4333 3.19622 41.3959 5.75443 41.3834 12.0422L41.3709 20.8694L41.6707 20.7851C41.8331 20.7382 42.2203 20.607 42.5076 20.4852C42.8074 20.3728 43.1072 20.2697 43.1946 20.2603C43.2945 20.2509 43.332 23.9336 43.3195 35.1317L43.2945 50.0218H44.7061H46.1051L46.0926 33.7354C46.0801 23.0903 46.0426 17.4022 45.9552 17.2804C45.8802 17.168 45.8802 17.1305 45.9552 17.168C46.0301 17.2055 46.0676 16.6338 46.0676 15.5843C46.0676 14.4317 46.0301 13.9726 45.9302 14.01C45.8428 14.0569 45.8428 14.0288 45.9302 13.9351C46.1176 13.757 46.1176 13.2698 45.9302 13.3541C45.8552 13.3822 45.8552 13.3541 45.9552 13.2791C46.0301 13.2135 46.1051 13.0167 46.1051 12.8481C46.1051 12.5107 46.1301 12.5014 46.4548 12.6232C46.5673 12.67 46.967 12.7918 47.3292 12.9043L47.9788 13.0917L47.9913 12.7918C48.0037 12.6232 48.0037 12.4639 48.0037 12.4358C47.9788 12.2671 47.9663 10.5335 47.9788 7.01947C47.9913 4.83609 47.9788 3.03691 47.9538 3.02754C47.9288 3.0088 47.9413 2.40907 47.9788 1.6969C48.0662 -0.102283 48.0537 -0.158508 47.5041 0.131985ZM46.0426 0.919128C46.0801 0.965981 46.0301 1.01284 45.9177 1.01284C45.8053 1.01284 45.7553 0.965981 45.7928 0.919128C45.8303 0.862904 45.8927 0.82542 45.9177 0.82542C45.9427 0.82542 46.0051 0.862904 46.0426 0.919128ZM45.9802 12.67C45.9802 12.6981 45.9302 12.745 45.8552 12.7731C45.7928 12.8012 45.7303 12.7825 45.7303 12.7356C45.7303 12.6794 45.7928 12.6325 45.8552 12.6325C45.9302 12.6325 45.9802 12.6513 45.9802 12.67ZM44.6686 14.0382C44.7061 14.0944 44.6561 14.1037 44.5562 14.0756C44.3313 14.01 44.2938 13.9444 44.4687 13.9444C44.5437 13.9444 44.6311 13.9819 44.6686 14.0382ZM44.5562 15.4438C44.5562 15.5562 44.5062 15.5937 44.4437 15.5468C44.3813 15.5 44.3688 15.4156 44.4063 15.3594C44.5312 15.2189 44.5562 15.2282 44.5562 15.4438ZM44.069 15.6874C44.0315 15.7155 43.9191 15.7249 43.8317 15.6968C43.7317 15.6687 43.7692 15.6405 43.9066 15.6405C44.044 15.6312 44.119 15.6593 44.069 15.6874Z" fill="#65A1D7"/>
<path d="M46.8545 17.852C46.8545 21.2911 46.8545 41.9629 46.8545 49.0097V50.0218H47.3042H47.7414L47.7039 48.9441C47.6789 48.3538 47.7039 47.8665 47.7414 47.8665C47.7913 47.8665 47.7788 47.7072 47.7289 47.5104C47.6914 47.323 47.6664 47.0138 47.6914 46.8357C47.7164 46.6577 47.7414 46.4515 47.7414 46.3859C47.7414 46.3297 47.7414 45.6175 47.7414 44.821C47.7414 44.0245 47.7414 43.3123 47.7414 43.2467C47.7414 43.1905 47.7414 41.7193 47.7289 39.9951C47.7164 38.2709 47.7164 36.809 47.7289 36.7622C47.7414 36.7059 47.7414 36.6216 47.7289 36.5748C47.7164 36.5185 47.7164 33.3231 47.7164 29.453C47.7164 24.1398 47.6789 22.4156 47.5665 22.3594C47.4541 22.3125 47.4666 22.2844 47.604 22.2844C47.7664 22.2844 47.7664 22.275 47.604 22.1907C47.4791 22.1345 47.4666 22.097 47.579 22.097C47.6539 22.097 47.7289 22.0126 47.7289 21.9002C47.7289 21.7784 47.6789 21.7315 47.579 21.7784C47.4541 21.8346 47.4541 21.8252 47.5665 21.7128C47.7414 21.5535 47.7414 17.6927 47.5665 17.6927C47.504 17.6927 47.504 17.6365 47.579 17.5709C47.6539 17.5053 47.6914 17.3554 47.6414 17.2429C47.604 17.1118 47.6289 17.0368 47.7289 17.0368C47.8288 17.0368 47.8413 16.9993 47.7664 16.915C47.6414 16.7838 47.6414 14.3568 47.7664 14.2537C47.8163 14.2256 47.8538 14.2443 47.8538 14.3005C47.8538 14.3661 47.9537 14.413 48.0786 14.413C48.216 14.413 48.241 14.4411 48.1411 14.4879C47.9412 14.5817 47.9537 19.2764 48.1536 19.4638C48.2535 19.5669 48.2535 19.5856 48.1411 19.5388C48.0287 19.4825 47.9912 20.5227 47.9912 24.1117C47.9912 27.7194 48.0287 28.7408 48.1411 28.694C48.2535 28.6471 48.2535 28.6659 48.1411 28.7596C48.0287 28.8439 47.9787 29.2187 47.9787 29.9309C47.9787 30.6899 48.0287 30.9992 48.1411 31.0273C48.2535 31.0648 48.2535 31.0835 48.1286 31.0835C47.9162 31.0929 47.9162 36.2187 48.1411 36.4248C48.2535 36.5373 48.2535 36.5466 48.1411 36.4998C48.0162 36.4436 47.9912 37.9148 47.9912 43.228V50.0218H49.4027H50.8267L50.8017 42.1035C50.8017 37.7461 50.8267 34.1852 50.8642 34.1852C50.9017 34.1852 51.3888 34.3726 51.9509 34.5975C52.513 34.8224 53.0002 34.9817 53.0252 34.9536C53.0502 34.9161 53.0751 34.2133 53.0876 33.3887C53.1001 32.5641 53.1126 31.8425 53.1126 31.7957C53.1501 30.0902 53.0127 25.686 52.9127 25.6391C52.8253 25.5923 52.8253 25.5641 52.9252 25.5641C53.0127 25.5641 53.0502 25.0488 53.0377 23.9618C53.0377 22.678 53.0002 22.35 52.8503 22.275C52.6879 22.1907 52.6879 22.1813 52.8628 22.2188C53.0377 22.2657 53.0626 22.0314 53.0377 19.9417C53.0377 18.6579 53.0751 17.6271 53.1251 17.6553C53.1751 17.6834 53.1876 17.6271 53.1376 17.5334C53.0876 17.4397 53.0502 17.2336 53.0626 17.0649C53.0626 16.8962 53.0002 16.7557 52.9252 16.7557C52.8378 16.7557 52.8378 16.7276 52.9127 16.6807C53.1501 16.5589 53.1251 16.3527 52.8878 16.4183C52.6879 16.4652 52.6879 16.4558 52.8503 16.3621C52.9627 16.2871 53.0502 16.0622 53.0626 15.7905L53.0751 15.3407L52.5005 15.1439C50.9391 14.6379 49.4027 14.2068 49.1529 14.1881C49.003 14.1881 48.8781 14.1412 48.8906 14.0944C48.9031 14.0382 48.6907 13.9444 48.4159 13.8788C47.9787 13.7664 47.2167 13.5228 46.9544 13.4103C46.892 13.3916 46.8545 15.3875 46.8545 17.852ZM49.2903 19.0046C49.3278 19.0609 49.2778 19.0702 49.1779 19.0421C48.953 18.9765 48.9155 18.9109 49.0904 18.9109C49.1654 18.9109 49.2528 18.9484 49.2903 19.0046Z" fill="#65A1D7"/>
<path d="M40.6084 21.8159C39.684 22.1626 38.8471 22.5 38.7721 22.5562C38.6847 22.6218 38.6098 22.6499 38.6098 22.6218C38.6098 22.5749 37.6729 22.8935 36.861 23.2215L36.4238 23.3996L36.3988 25.508L36.3613 27.607L37.2107 27.3071C38.4099 26.8667 38.6098 26.8292 38.6098 27.0354C38.6222 27.1291 38.6222 27.607 38.6222 28.0943C38.6222 28.5816 38.6222 32.4798 38.6222 36.7622C38.6222 41.0353 38.6222 45.7675 38.6098 47.2762C38.6098 49.7313 38.6222 50.0124 38.8096 50.0405C38.922 50.0593 39.5591 50.0593 40.2336 50.0405L41.4578 50.0124L41.4703 47.8572C41.4703 46.2641 41.4328 45.7113 41.3204 45.7113C41.2079 45.7113 41.2079 45.6925 41.3204 45.6363C41.4328 45.5801 41.4578 42.8626 41.4453 34.0634C41.4328 25.18 41.4703 22.5374 41.5827 22.4531C41.6951 22.3688 41.7326 22.4531 41.7451 22.8467C41.7575 23.1278 41.7575 23.3996 41.7451 23.437C41.7076 23.5963 41.7076 24.3647 41.7201 36.9684L41.7326 50.0218H42.1698H42.607V35.5909C42.5945 24.2898 42.5695 21.16 42.4446 21.1693C42.3571 21.1787 41.5327 21.4692 40.6084 21.8159Z" fill="#65A1D7"/>
<path d="M36.9857 28.0099C36.5361 28.1692 35.3494 28.6003 34.3501 28.9657L32.5264 29.6404L32.5389 39.8264L32.5513 50.0218H34.4625H36.3612V48.9629C36.3612 48.3913 36.3737 43.7809 36.3737 38.73C36.3737 33.6792 36.4111 29.4999 36.4611 29.4436C36.5111 29.3874 36.6485 29.3218 36.7734 29.2843C37.0107 29.2187 36.9857 27.7382 36.9857 42.3471C36.9857 46.5546 37.0107 50.0124 37.0482 50.0405C37.0857 50.0592 37.273 50.0686 37.4729 50.0405L37.8476 50.003V38.8612C37.8601 32.7328 37.8476 27.7194 37.8227 27.7194C37.8102 27.7194 37.4354 27.8506 36.9857 28.0099Z" fill="#65A1D7"/>
<path d="M51.6013 35.4596C51.6013 35.6939 51.5638 35.7689 51.4514 35.722C51.3265 35.6658 51.3389 35.6939 51.4514 35.8064C51.5513 35.8907 51.6262 36.1531 51.6262 36.4061C51.6262 36.6497 51.6138 38.6644 51.6138 40.8853C51.6138 43.0968 51.6138 46.0673 51.6138 47.4635V50.0217H51.976H52.3507L52.3632 44.0432C52.3757 40.7635 52.3632 37.8117 52.3507 37.4837C52.3258 36.884 52.3882 36.8184 52.7629 37.0433C52.9878 37.1651 53.0003 37.39 53.0003 40.8572C53.0003 43.5372 53.0378 44.5586 53.1377 44.6055C53.2501 44.6617 53.2501 44.6804 53.1377 44.6804C53.0128 44.6804 52.9753 45.2802 52.9753 47.3511V50.0217H53.6373C53.9871 50.0311 54.8615 50.0405 55.561 50.0499L56.8476 50.0686V43.6497V37.2307L55.9357 36.8652C55.4486 36.6685 54.9364 36.4342 54.824 36.3592C54.6991 36.2843 54.5992 36.2468 54.5992 36.2749C54.5992 36.3124 54.3868 36.2468 54.137 36.1343C53.8747 36.0219 53.4749 35.8626 53.2501 35.7689C53.0253 35.6752 52.7754 35.5721 52.688 35.5252C52.6006 35.4784 52.3258 35.3753 52.0759 35.2816L51.6013 35.1223V35.4596Z" fill="#65A1D7"/>
<path d="M0.261719 50.8651V51.1462H45.3551H90.4486V50.8651V50.584H45.3551H0.261719V50.8651Z" fill="#65A1D7"/>
<path d="M34.9121 53.264C34.0627 53.5733 33.613 54.173 33.613 54.9882C33.613 55.4661 33.8878 56.2533 34.2376 56.778L34.4749 57.106L34.1002 57.5371C33.613 58.0993 33.2383 58.9146 33.2383 59.43C33.2383 59.6923 33.3632 60.0109 33.588 60.3389C34.2501 61.3041 35.724 61.5477 36.9107 60.9105L37.4728 60.6107L38.0599 60.8449C38.3847 60.9761 38.8094 61.0792 38.9967 61.0792C39.3465 61.0792 39.359 61.0698 39.359 60.5638C39.359 60.0765 39.3465 60.0484 38.9218 59.8985C38.672 59.8142 38.4596 59.7205 38.4346 59.683C38.4097 59.6549 38.572 59.2707 38.8094 58.8302C39.0342 58.3898 39.2216 57.9213 39.2341 57.7807C39.2341 57.5558 39.1716 57.509 38.7095 57.4246C38.4097 57.3684 38.1099 57.3028 38.0224 57.2841C37.935 57.2653 37.7601 57.5371 37.5852 57.9681L37.2979 58.6803L36.7608 58.0244C36.4735 57.6589 36.2362 57.3309 36.2362 57.2934C36.2362 57.256 36.561 56.8999 36.9607 56.5063C37.3729 56.1127 37.7726 55.6254 37.86 55.4193C38.0849 54.9133 37.9725 54.1449 37.6102 53.77C37.0606 53.1984 35.7615 52.9454 34.9121 53.264ZM36.3611 54.3042C36.7233 54.6509 36.6234 54.9695 35.9988 55.5598C35.4617 56.0659 35.4243 56.0565 35.1744 55.3631C34.9746 54.8008 35.062 54.4728 35.4617 54.2386C35.8739 53.9856 36.0363 54.0043 36.3611 54.3042ZM35.799 59.0176C36.1113 59.3831 36.3611 59.7205 36.3611 59.7673C36.3611 59.9172 35.5991 60.1609 35.3118 60.1047C34.9995 60.0484 34.7372 59.6923 34.7372 59.3456C34.7372 59.1301 35.087 58.3617 35.1869 58.3617C35.1994 58.3617 35.4742 58.6616 35.799 59.0176Z" fill="#65A1D7"/>
<path d="M0.761719 57.331V61.2667L2.96018 61.2479L5.17113 61.2198V60.6576V60.0953L3.70965 60.0672L2.26067 60.0391V59.0177V57.9869H3.30993H4.3592L4.40916 57.4153C4.42166 57.1061 4.42166 56.8249 4.39667 56.8062C4.37169 56.7875 3.87204 56.7687 3.29744 56.7687H2.26067V55.6911V54.6134H3.73464H5.19611L5.18362 54.0325L5.15864 53.4421L2.96018 53.414L0.761719 53.3952V57.331Z" fill="#65A1D7"/>
<path d="M8.06834 53.4796C6.40701 53.7982 5.78245 55.2038 6.71929 56.497C6.91915 56.7781 7.49375 57.2747 8.16827 57.7245C9.34245 58.5398 9.74217 58.9896 9.67972 59.4394C9.64224 59.758 9.11761 60.1422 8.74287 60.1422C8.38063 60.1422 7.91845 59.7486 7.75606 59.2988C7.61866 58.924 7.59368 58.9052 7.23143 58.9615C7.01908 58.9896 6.68182 59.0177 6.46946 59.0177H6.09473L6.16967 59.4769C6.34455 60.6201 7.33136 61.2667 8.89277 61.2667C10.2168 61.2667 11.2536 60.4233 11.2536 59.355C11.2536 58.5585 10.8039 57.9963 9.32996 56.9186C8.2682 56.1502 8.00589 55.9066 7.94343 55.6255C7.81852 55.1476 7.94343 54.8383 8.33066 54.6509C8.76785 54.4354 9.21754 54.5947 9.46736 55.0632L9.64224 55.4193L10.3917 55.3256C11.2661 55.2132 11.3161 55.1101 10.8164 54.3698C10.3418 53.6576 9.15508 53.2734 8.06834 53.4796Z" fill="#65A1D7"/>
<path d="M12.3404 53.4608C12.2904 53.489 12.2529 53.7701 12.2529 54.0699V54.6134H13.0649H13.8768V57.9401V61.2667H14.6263H15.3757V57.9401V54.6134H16.1877H16.9996V54.0043V53.3952H14.7137C13.4521 53.3952 12.3778 53.4234 12.3404 53.4608Z" fill="#65A1D7"/>
<path d="M18.4863 53.414C18.4488 53.5171 18.3614 53.9013 18.0741 55.2225C17.8992 56.0472 17.6619 57.0592 17.5619 57.4715C17.3871 58.2024 16.75 61.1355 16.75 61.2292C16.75 61.2573 17.1247 61.2667 17.5869 61.2479L18.4363 61.2198L18.5987 60.517C18.6861 60.1328 18.7861 59.7205 18.8235 59.5987C18.8735 59.4206 18.9485 59.3925 19.548 59.3925H20.2226L20.4474 60.3296L20.6598 61.2667H21.5341H22.396L22.3211 61.0043C22.2212 60.6295 21.9214 59.3082 21.4967 57.331C21.2968 56.3751 21.0345 55.1944 20.9346 54.7072C20.8221 54.2199 20.7222 53.7326 20.6972 53.6295C20.6598 53.4608 20.5473 53.4421 19.5855 53.414C18.9859 53.4046 18.4988 53.4046 18.4863 53.414ZM19.9353 57.6308L20.0227 58.268H19.5106C19.0234 58.268 19.0109 58.2587 19.0609 58.0056C19.1233 57.762 19.4856 55.9347 19.5106 55.7754C19.5355 55.6255 19.8478 56.9842 19.9353 57.6308Z" fill="#65A1D7"/>
<path d="M22.1718 53.5264C22.1343 53.592 22.1218 53.8544 22.1468 54.1074L22.1843 54.5666L22.9712 54.5947L23.7457 54.6228V57.9401V61.2667H24.5576H25.3695V57.9401V54.6228L26.1565 54.5947L26.9309 54.5666V54.0043V53.4421L24.5826 53.414C22.6714 53.3952 22.2342 53.414 22.1718 53.5264Z" fill="#65A1D7"/>
<path d="M27.9421 53.4796C27.9046 53.5264 27.8796 55.2881 27.9046 57.3872L27.9296 61.2198L30.153 61.2479L32.364 61.2667V60.6576V60.0485H30.9275H29.491V59.0177V57.9869H30.5527H31.6145V57.3778V56.7687H30.5527H29.491V55.6911V54.6134H30.9275H32.364V54.0043V53.3952H30.1905C28.9913 53.3952 27.9795 53.4327 27.9421 53.4796Z" fill="#65A1D7"/>
<path d="M40.3211 53.4608C40.2711 53.5171 40.2586 55.2787 40.2711 57.3872L40.2961 61.2198L41.083 61.2479L41.8575 61.276V59.7673V58.2586L42.3197 58.2868C42.7694 58.3149 42.7818 58.3336 42.9942 58.8771C43.1066 59.1863 43.319 59.8517 43.4689 60.3483L43.7562 61.2666H44.6181C45.0927 61.2666 45.48 61.2385 45.48 61.1917C45.48 61.1542 45.2301 60.3858 44.9303 59.4862L44.3932 57.8463L44.6805 57.5839C45.0677 57.2372 45.1302 56.9093 45.0802 55.5411C45.0428 54.2199 44.8804 53.9294 44.0185 53.6295C43.4814 53.4327 40.446 53.3015 40.3211 53.4608ZM43.3939 54.7915C43.4814 54.8571 43.5563 55.2506 43.5813 55.766C43.6188 56.853 43.4689 57.0498 42.4946 57.1248L41.8575 57.1716V55.8785V54.5947L42.5445 54.6322C42.9317 54.6603 43.3065 54.7259 43.3939 54.7915Z" fill="#65A1D7"/>
<path d="M46.8541 53.4608C46.8416 53.5077 46.8416 55.26 46.8541 57.3778V61.2198L49.0401 61.2479L51.226 61.2667V60.6576V60.0485H49.7895H48.353V59.0177V57.9869H49.4148H50.4766V57.3778V56.7687H49.4148H48.353V55.6911V54.6134H49.7895H51.2385L51.2011 54.0231L51.1636 53.4421L49.0151 53.414C47.8284 53.4046 46.8541 53.4234 46.8541 53.4608Z" fill="#65A1D7"/>
<path d="M54.0995 53.4796C52.7379 53.6857 52.0634 54.7821 52.5006 56.094C52.613 56.4688 52.8379 56.6844 54.0745 57.6121C55.536 58.7178 55.7234 58.9146 55.7234 59.4019C55.7234 59.7486 55.2362 60.1422 54.799 60.1422C54.3743 60.1422 53.8622 59.7111 53.7747 59.2801L53.6998 58.9333L52.9253 58.9896C52.5131 59.0177 52.1384 59.0552 52.1259 59.0739C52.1009 59.0833 52.1384 59.3082 52.2133 59.5705C52.4881 60.5357 53.375 61.1729 54.5367 61.2479C56.0731 61.3416 57.1224 60.6763 57.3097 59.4768C57.3722 59.0739 57.3222 58.9333 56.9225 58.3336C56.5603 57.7995 56.2605 57.5277 55.486 57.0123C54.2993 56.2439 53.7997 55.6348 53.9246 55.1288C54.0245 54.6978 54.4867 54.4541 54.9364 54.5759C55.2737 54.6603 55.3986 54.7821 55.5859 55.185C55.7109 55.4287 55.7109 55.4287 56.4229 55.3256C56.8226 55.2694 57.1598 55.1663 57.1848 55.1101C57.2723 54.9227 56.6977 54.0512 56.3354 53.8263C56.0356 53.6389 54.9364 53.3671 54.6241 53.4046C54.5742 53.414 54.3368 53.4421 54.0995 53.4796Z" fill="#65A1D7"/>
<path d="M58.4715 53.414C58.4715 53.4327 58.4715 55.1944 58.459 57.3309V61.2198L59.2085 61.2479L59.9704 61.276V57.3309V53.3952H59.221C58.8087 53.3952 58.4715 53.4046 58.4715 53.414Z" fill="#65A1D7"/>
<path d="M61.3436 53.4233C61.3062 53.4515 61.2937 55.2319 61.3187 57.3778L61.3436 61.2854L62.9425 61.2479C64.4415 61.2198 64.5539 61.201 65.0411 60.9574C65.3159 60.8168 65.6781 60.5264 65.853 60.3015C66.1403 59.9173 66.1528 59.8329 66.1903 57.7526C66.2152 56.5625 66.2027 55.3818 66.1528 55.1101C66.0653 54.5572 65.7406 54.1449 65.066 53.7419C64.6039 53.4702 64.5539 53.4608 63.005 53.414C62.1181 53.3952 61.3811 53.3952 61.3436 53.4233ZM64.2791 54.8477L64.5914 55.0726V57.3403C64.5914 59.5424 64.5789 59.6174 64.3166 59.8329C64.1042 60.0016 63.9168 60.0484 63.4422 60.0484H62.8426V57.3309V54.6134H63.4047C63.8419 54.6134 64.0542 54.6696 64.2791 54.8477Z" fill="#65A1D7"/>
<path d="M67.4273 53.4515C67.3773 53.489 67.3398 55.26 67.3398 57.3966V61.2667H69.5883H71.8367V60.6576V60.0485H70.4002H68.9637V59.0177V57.9869H70.0255H71.0872V57.3778V56.7687H70.0255H68.9637V55.6911V54.6134H70.4002H71.8492L71.8117 54.0231L71.7742 53.4421L69.6382 53.414C68.4765 53.4046 67.4772 53.4234 67.4273 53.4515Z" fill="#65A1D7"/>
<path d="M72.7109 57.3309V61.2666H73.4604H74.2099L74.2224 58.849L74.2349 56.4407L74.9469 58.0806C75.3466 58.9802 75.8088 60.0578 75.9836 60.4701L76.2959 61.2198L77.1953 61.2479L78.0822 61.276V57.3309V53.3952H77.3327H76.5832L76.5707 56.0378V58.6897L76.2709 57.94C76.1086 57.5277 75.6464 56.347 75.2467 55.3162L74.5222 53.4421L73.6103 53.414L72.7109 53.3859V57.3309Z" fill="#65A1D7"/>
<path d="M81.1173 53.4889C80.5177 53.592 79.8307 54.0231 79.5684 54.4635C79.356 54.8102 79.3311 55.1101 79.3311 57.2935C79.3311 58.8771 79.381 59.8517 79.4685 60.0578C79.8182 60.8262 80.9549 61.3416 82.0916 61.2385C82.8786 61.1636 83.4407 60.9106 83.9029 60.4139C84.2026 60.0766 84.2526 59.9266 84.3026 59.1957L84.3525 58.3617H83.5281H82.7037V58.9615C82.7037 59.4206 82.6412 59.608 82.4414 59.8048C82.1041 60.1234 81.5545 60.1328 81.1423 59.8142L80.83 59.5893V57.3591C80.83 54.8852 80.8675 54.7727 81.6419 54.6509C82.2915 54.5572 82.6287 54.8477 82.7037 55.5693L82.7661 56.1596H83.5156H84.2651L84.3026 55.6442C84.39 54.6041 83.7155 53.7982 82.5413 53.5358C81.8543 53.3859 81.7169 53.3765 81.1173 53.4889Z" fill="#65A1D7"/>
<path d="M85.3898 53.5077C85.3523 53.5733 85.3398 55.335 85.3523 57.4247L85.3898 61.2198L87.6133 61.2479L89.8242 61.2667V60.6576V60.0485H88.3877H86.9512V59.0177V57.9869H88.013H89.0747V57.3778V56.7687H88.013H86.9512V55.6911V54.6134H88.3877H89.8367L89.7992 54.0231L89.7618 53.4421L87.6008 53.414C85.9394 53.3952 85.4273 53.414 85.3898 53.5077Z" fill="#65A1D7"/>
<path d="M19.123 64.9306C19.123 64.9868 19.2854 65.2024 19.4728 65.4179C19.6602 65.6334 20.0599 66.1113 20.3472 66.4768C20.8094 67.0578 20.8718 67.1983 20.8718 67.7137C20.8718 68.2291 20.8968 68.2947 21.1216 68.2947C21.2715 68.2947 21.3715 68.2291 21.384 68.126C21.3965 68.0417 21.4089 67.7793 21.4214 67.545C21.4464 67.1983 21.6088 66.9172 22.3333 66.027C23.1202 65.0618 23.1952 64.9306 22.9828 64.8931C22.6955 64.8369 22.6081 64.9306 21.4089 66.4018L21.1591 66.711L20.7719 66.2425C20.547 65.9801 20.2098 65.5584 19.9974 65.3148C19.7726 65.0431 19.5353 64.865 19.3729 64.8556C19.2355 64.8463 19.123 64.8838 19.123 64.9306Z" fill="#65A1D7"/>
<path d="M25.4317 64.8744C25.3692 64.8931 25.1069 64.9306 24.8571 64.9587C24.3199 65.0243 23.6704 65.4554 23.4206 65.9145C23.0208 66.6454 23.3706 67.545 24.2325 67.9761C25.4192 68.5571 27.093 68.2947 27.7051 67.4232C27.9049 67.1421 28.1423 65.9333 27.9799 65.9989C27.9424 66.0176 27.8175 65.8958 27.7051 65.7177C27.5926 65.5397 27.2928 65.2961 27.0305 65.1649C26.5933 64.9587 25.7314 64.7994 25.4317 64.8744ZM26.6558 65.4647C26.8432 65.5491 27.118 65.8021 27.2554 66.0176C27.9174 67.0484 26.7432 68.1073 25.2193 67.8824C24.3949 67.7606 23.8702 67.2358 23.8702 66.5424C23.8702 66.13 23.9327 65.9989 24.2575 65.7177C24.8695 65.193 25.8189 65.0993 26.6558 65.4647Z" fill="#65A1D7"/>
<path d="M29.0665 64.8931C28.8541 64.94 28.8416 65.0337 28.8916 66.13C28.9291 67.1046 28.979 67.3764 29.1914 67.6387C29.8409 68.5008 31.7146 68.5102 32.4516 67.6668C32.639 67.4513 32.6764 67.2077 32.6764 66.1394C32.6764 64.94 32.6639 64.8744 32.4266 64.8744C32.1893 64.8744 32.1768 64.9493 32.1143 66.1582C32.0644 67.3014 32.0269 67.4701 31.7896 67.6387C31.4648 67.8824 30.7278 67.9761 30.2531 67.8261C29.6535 67.6387 29.4912 67.2545 29.4912 65.9614C29.4912 65.3335 29.4537 64.8369 29.4037 64.8369C29.3413 64.8463 29.2039 64.865 29.0665 64.8931Z" fill="#65A1D7"/>
<path d="M34.1133 66.5517C34.1133 68.2291 34.1258 68.2947 34.3631 68.2947C34.5879 68.2947 34.6129 68.2291 34.6129 67.7793V67.2639H35.4124H36.1993L36.6615 67.7793C37.0113 68.1729 37.1861 68.2947 37.4235 68.2947C37.5983 68.2947 37.7357 68.2666 37.7357 68.2291C37.7357 68.201 37.5109 67.948 37.2236 67.6762L36.724 67.1796L37.1986 66.861C37.6233 66.5611 37.6733 66.4861 37.6733 66.0551C37.6733 65.6709 37.6108 65.5397 37.311 65.3054C36.8364 64.94 36.5241 64.865 35.2125 64.8369L34.1133 64.8088V66.5517ZM36.8114 65.5116C37.1986 65.8489 37.1986 66.2425 36.8114 66.5799C36.5366 66.8235 36.4367 66.8422 35.5872 66.8422H34.6754L34.6379 66.1488C34.5879 65.1649 34.5755 65.1742 35.6247 65.2211C36.4117 65.2492 36.5491 65.2867 36.8114 65.5116Z" fill="#65A1D7"/>
<path d="M40.4333 64.8931C40.3959 64.9306 40.3584 65.7084 40.3584 66.6267V68.304L40.6457 68.2759C40.9205 68.2478 40.9205 68.2197 40.9205 67.0015C40.9205 66.3268 40.958 65.7646 40.9955 65.7646C41.0329 65.7646 41.67 66.3362 42.3945 67.0296C44.2307 68.7726 44.2307 68.7726 44.2307 66.6079C44.2307 65.5584 44.1807 64.9118 44.1058 64.9025C44.0433 64.9025 43.9059 64.8931 43.831 64.8837C43.7061 64.8744 43.6561 65.2117 43.6061 66.1394L43.5437 67.4045L42.2571 66.1863C41.0579 65.0618 40.6207 64.7525 40.4333 64.8931Z" fill="#65A1D7"/>
<path d="M45.6679 64.9025C45.6305 64.9306 45.6055 65.7084 45.6055 66.6267V68.2947H47.2293C48.7658 68.2947 48.8532 68.2853 48.8532 68.1073C48.8532 67.9386 48.7533 67.9199 47.5166 67.9011C46.1801 67.873 46.1676 67.873 46.1426 67.6387C46.1301 67.5076 46.1426 67.2733 46.1801 67.1046L46.2425 66.8048L47.3293 66.7766C48.2411 66.7485 48.416 66.7204 48.4535 66.5892C48.4909 66.4487 48.3535 66.4206 47.3293 66.4018L46.1676 66.3737V65.8115V65.2492L47.4542 65.2211C48.5909 65.2024 48.7408 65.1742 48.7033 65.0337C48.6658 64.8931 48.4785 64.8744 47.2043 64.865C46.3924 64.8556 45.7054 64.8744 45.6679 64.9025Z" fill="#65A1D7"/>
<path d="M49.4524 64.8744C49.4149 64.9119 49.7147 65.6896 50.1269 66.6173C50.8389 68.2197 50.8889 68.3041 51.1762 68.276C51.451 68.2478 51.5509 68.1073 52.0755 66.9547C52.4003 66.2519 52.6876 65.6709 52.7251 65.6709C52.7751 65.6709 53.0748 66.2613 53.3996 66.9828C53.9367 68.1541 54.0367 68.2947 54.2865 68.2947C54.5363 68.2947 54.6238 68.201 54.8486 67.695C54.9985 67.3576 55.3358 66.608 55.5981 66.027C55.8729 65.446 56.0478 64.94 55.9853 64.8931C55.7355 64.7057 55.4857 65.0056 55.0485 66.0176C54.2365 67.873 54.3614 67.8543 53.6494 66.2706C53.3122 65.5116 52.9624 64.8744 52.875 64.8556C52.6626 64.79 52.3878 64.9775 52.3004 65.2492C52.2629 65.371 51.9881 65.9708 51.7008 66.5705L51.1887 67.6762L50.5516 66.2706C49.952 64.9681 49.7272 64.6682 49.4524 64.8744Z" fill="#65A1D7"/>
<path d="M58.8081 64.8931C58.7582 64.9212 58.7207 65.7084 58.7207 66.6267V68.2947H60.2072C61.3688 68.2947 61.7061 68.2666 61.7561 68.1635C61.8685 67.948 61.7311 67.9199 60.457 67.9199H59.2453L59.2328 66.458C59.2204 65.6428 59.1829 64.9493 59.1454 64.9119C59.0705 64.8088 58.9206 64.8088 58.8081 64.8931Z" fill="#65A1D7"/>
<path d="M62.5554 64.8838C62.5053 64.9212 62.4678 65.7084 62.4678 66.6267C62.4678 68.2104 62.4803 68.2947 62.7057 68.2947C63.0187 68.2947 63.0437 68.0885 62.9686 66.2894C62.906 64.9868 62.8183 64.687 62.5554 64.8838Z" fill="#65A1D7"/>
<path d="M64.4167 64.9025C64.3793 64.9306 64.3418 65.7084 64.3418 66.6267V68.304L64.6291 68.2759C64.8789 68.2478 64.9039 68.1916 64.9414 67.5638L64.9789 66.8891H66.0906C67.1273 66.8891 67.2148 66.8797 67.2148 66.7017C67.2148 66.5236 67.1273 66.5142 66.1031 66.5142H64.9789L64.9414 66.2519C64.9164 66.1113 64.9289 65.8208 64.9539 65.5959L64.9913 65.2023H66.2904C67.3147 65.2023 67.5895 65.1742 67.5895 65.0711C67.5895 64.9962 67.4521 64.9118 67.2772 64.8837C66.89 64.8088 64.5167 64.8275 64.4167 64.9025Z" fill="#65A1D7"/>
<path d="M68.4637 64.8838C68.4637 64.9025 68.4512 65.5491 68.4512 66.3268C68.4512 67.0952 68.4637 67.8543 68.4637 68.0136V68.2947H70.1C71.5865 68.2947 71.7239 68.276 71.6864 68.126C71.6489 67.9855 71.4616 67.9667 70.2999 67.9386L68.9633 67.9105V67.3576V66.7954H70.075C70.9119 66.7954 71.1992 66.7673 71.2492 66.6642C71.3616 66.4487 71.2242 66.4206 70.0625 66.4206H68.9508L68.9883 65.8302L69.0258 65.2492L70.3124 65.2211C71.4491 65.2024 71.599 65.1742 71.5615 65.0337C71.524 64.8931 71.3242 64.8744 69.9876 64.865C69.1507 64.8556 68.4637 64.8744 68.4637 64.8838Z" fill="#65A1D7"/>
</svg>
